<svg xmlns="http://www.w3.org/2000/svg" shape-rendering="geometricPrecision" text-rendering="geometricPrecision" image-rendering="optimizeQuality" fill-rule="evenodd" clip-rule="evenodd" viewBox="0 0 512 512"><path fill-rule="nonzero" d="M0 256c0 70.684 28.658 134.695 74.981 181.019C121.305 483.342 185.309 512 256 512s134.695-28.658 181.019-74.981C483.342 390.695 512 326.691 512 256s-28.658-134.695-74.981-181.019C390.695 28.658 326.691 0 256 0S121.305 28.658 74.981 74.981C28.658 121.305 0 185.309 0 256zm200.641-79.003c-17.861-30.983 6.963-46.316 25.063-29.012l101.046 88.741c16.136 16.129 16.136 22.426 0 38.563L225.704 364.03c-18.187 17.18-42.867 2.203-25.063-29.02l46.932-79.003-46.932-79.01z"/></svg>